<?xml version="1.0" encoding="utf-8"?>
<!-- Generator: Adobe Illustrator 22.0.1, SVG Export Plug-In . SVG Version: 6.00 Build 0)  -->
<svg version="1.1" id="Layer_1" xmlns="http://www.w3.org/2000/svg" xmlns:xlink="http://www.w3.org/1999/xlink" x="0px" y="0px"
	 viewBox="0 0 1300.8 300" style="enable-background:new 0 0 1300.8 300;" xml:space="preserve">
<style type="text/css">
	.st0{fill:#FFFFFF;}
	.st1{fill:#13B15F;}
</style>
<g>
	
		<ellipse transform="matrix(0.7071 -0.7071 0.7071 0.7071 -59.3183 156.7935)" class="st0" cx="159.6" cy="150" rx="120.2" ry="120.2"/>
	<path class="st1" d="M149.7,229.5v-19.2c-13.6-0.6-26.7-4.3-34.4-8.7l6.1-23.7c8.5,4.7,20.5,8.9,33.6,8.9
		c11.5,0,19.4-4.5,19.4-12.6c0-7.7-6.5-12.6-21.5-17.6c-21.7-7.3-36.4-17.4-36.4-37.1c0-17.8,12.6-31.8,34.2-36V64.3h19.8v17.8
		c13.6,0.6,22.7,3.4,29.3,6.7l-5.9,22.9c-5.3-2.2-14.6-6.9-29.1-6.9c-13.2,0-17.4,5.7-17.4,11.3c0,6.7,7.1,10.9,24.3,17.4
		c24.1,8.5,33.8,19.6,33.8,37.9c0,18-12.8,33.4-36,37.4v20.6h-19.8V229.5z"/>
</g>
<g>
	<path class="st0" d="M472.6,96.5l-33.9,109.8h-26.6l-21.1-53l-20.7,53h-26.6L309.4,96.5h32.5l17.8,63.3L385.8,97h10.5l26.6,62.8
		l17.5-63.3H472.6z"/>
	<path class="st0" d="M561.8,163.1c0,2.6-0.2,5.1-0.6,7.7h-62.9c1.9,9.7,8.1,14.7,17.3,14.7c6.8,0,12.5-3,15.3-7.9h29
		c-6,19.3-23.1,31.4-44.3,31.4c-26.4,0-46-19.3-46-45.2c0-26,19.4-45.1,46-45.1C542.9,118.8,561.8,138.3,561.8,163.1L561.8,163.1z
		 M498.8,154.7H533c-2.6-8.5-8.7-13-17.5-13C507.1,141.6,501.2,146.3,498.8,154.7z"/>
	<path class="st0" d="M624.9,118.9c26.1,0,44.5,18.7,44.5,45.1c0,26.3-18.4,45.1-44.5,45.1c-9.9,0-18.7-3.3-25.5-9.1l-2.8,6.3H575
		V91h28.8v33.8C610,121,617.1,118.9,624.9,118.9L624.9,118.9z M640,164c0-11.1-8-19.3-19-19.3c-10.9,0-19,8.3-19,19.3
		s8,19.2,19,19.2C631.9,183.2,640,174.9,640,164z"/>
	<path class="st0" d="M736.9,209c-33.4,0-58.4-24.7-58.4-57.6c0-33,25-57.8,58.4-57.8c28.8,0,51.1,19,55.5,46.8h-30.6
		c-3.8-11.3-13.3-18.6-24.8-18.6c-15.5,0-26.9,12.5-26.9,29.5c0,16.9,11.4,29.3,26.9,29.3c12.2,0,21.8-7.9,24.8-20.1h30.9
		C788.5,189.4,766.1,209,736.9,209L736.9,209z"/>
	<path class="st0" d="M800.8,163.9c0-26.3,19.9-45.1,47.5-45.1c27.5,0,47.5,18.9,47.5,45.1s-20,45.1-47.5,45.1
		C820.7,209,800.8,190.1,800.8,163.9z M848.3,182.8c10.6,0,18.3-7.7,18.3-18.9c0-11.1-7.6-18.9-18.3-18.9s-18.3,7.7-18.3,18.9
		S837.7,182.8,848.3,182.8L848.3,182.8z"/>
	<path class="st0" d="M993,154.6v51.6h-29.2v-47.6c0-9.9-3.7-14.7-11-14.7c-9.1,0-14.3,6.4-14.3,17.1v45.2h-29.2v-84.7h20.5l4,8.7
		c6.3-7,15.7-11.2,26.7-11.2C980.1,119.1,993,133,993,154.6z"/>
	<path class="st0" d="M1066.9,180.7v25.5h-20.1c-18.7,0-30.1-11.4-30.1-30.3v-32h-15.5v-6.8l37.9-40.4h6v24.8h21.3V144h-20.5v27
		c0,6.1,3.7,9.7,9.8,9.7H1066.9z"/>
	<path class="st0" d="M1169.9,121.5v84.7h-22.6l-2.5-6c-6.9,5.6-15.7,8.9-25.6,8.9c-25.9,0-44.4-18.9-44.4-45.2
		c0-26.2,18.5-44.9,44.4-44.9c10,0,18.9,3.3,25.9,9.1l3-6.5L1169.9,121.5z M1142.1,163.9c0-11-8-19.2-19-19.2s-19,8.3-19,19.2
		c0,11.1,8,19.3,19,19.3S1142.1,174.9,1142.1,163.9z"/>
	<path class="st0" d="M1220.9,209c-23.1,0-37.1-12.2-37.4-30.5h28.1c0,6.2,4.3,9,9.8,9c4.3,0,8.3-2.2,8.3-6.6
		c0-4.9-6.4-6.3-14.5-7.6c-13.1-2.1-30.5-6.1-30.5-26.6c0-17,14.5-27.9,36.2-27.9c21.6,0,35.5,11.5,35.9,28.6h-27.3
		c0-5.4-3.6-7.9-8.9-7.9c-4.7,0-7.8,2.3-7.8,6.2c0,4.8,6.5,5.9,14.5,7.4c13.4,2.4,31.2,5.2,31.2,26.6
		C1258.4,197.4,1243.4,209,1220.9,209L1220.9,209z"/>
</g>
</svg>
